#N canvas 171 483 900 543 10;
#X declare -path ../vp_base;
#X obj 332 23 cnv 5 5 5 empty empty 5BITCRUSH 0 0 0 12 -262144 -66577
0;
#X obj 345 34 cnv 5 5 5 empty empty htaudio.de 0 0 0 8 -262144 -1 0
;
#X obj 10 232 inlet~;
#X obj 10 472 outlet~;
#X obj 15 22 cnv 5 5 5 empty empty IN 0 0 0 8 -262144 -1 0;
#X obj 16 154 cnv 5 5 5 empty empty OUT 0 0 0 8 -262144 -1 0;
#N canvas 0 22 450 278 (subpatch) 0;
#X array \$0-scope-in 512 float 0;
#X coords 0 1 511 -1 100 60 1 0 0;
#X restore 18 65 graph;
#N canvas 0 22 450 278 (subpatch) 0;
#X array \$0-scope-out 512 float 0;
#X coords 0 1 511 -1 100 60 1 0 0;
#X restore 301 65 graph;
#X obj 916 117 loadbang;
#X msg 916 139 1;
#X obj 910 188 tabwrite~ \$0-scope-in;
#X obj 1049 188 tabwrite~ \$0-scope-out;
#X obj 9 213 s~ \$0-audio-in-sig;
#X obj 910 87 r~ \$0-audio-in-sig;
#X obj 915 161 metro 50;
#X obj 1041 56 declare -path ../vp_base;
#X obj 438 232 r pd-dsp-stopped;
#X obj 547 232 r pd-dsp-started;
#X msg 438 254 0;
#X msg 547 254 1;
#X text 438 16 Input Parameter Processing;
#X text 915 31 DO NOT DELETE OR CHANGE THESE PARTS;
#X text 915 18 Oscis and include paths;
#X obj 144 65 hsl 128 15 1 0 0 0 \$0-value-reduxamt-s vp-5bitcrush-value-reduxamt-r
REDUX_AMT 10 8 0 10 -262144 -1 -1 0 1;
#X obj 10 492 s~ \$0-audio-out-sig;
#X obj 1048 87 r~ \$0-audio-out-sig;
#X floatatom 440 91 5 0 0 0 - - -, f 5;
#X text 11 174 DSP CIRCUIT;
#X text 57 232 AUDIO IN;
#X text 64 472 AUDIO OUT;
#X text 439 43 REDUX AMT;
#X obj 440 109 vp-normtorange 32 2;
#X floatatom 440 131 5 0 0 0 - - -, f 5;
#X msg 440 150 \$1 150;
#X obj 443 174 hsl 128 15 0 32 0 0 empty empty empty -2 -8 0 10 -262144
-1 -1 0 1;
#X obj 440 194 s \$0-reduxamt;
#X obj 10 334 expr~ floor($v1*$f2)/$f2;
#X obj 151 284 r \$0-reduxamt;
#X obj 440 69 r \$0-value-reduxamt-s;
#X connect 2 0 12 0;
#X connect 2 0 36 0;
#X connect 8 0 9 0;
#X connect 9 0 14 0;
#X connect 13 0 10 0;
#X connect 13 0 11 0;
#X connect 14 0 10 0;
#X connect 14 0 11 0;
#X connect 16 0 18 0;
#X connect 17 0 19 0;
#X connect 25 0 11 0;
#X connect 26 0 31 0;
#X connect 31 0 32 0;
#X connect 32 0 33 0;
#X connect 33 0 34 0;
#X connect 34 0 35 0;
#X connect 36 0 3 0;
#X connect 36 0 24 0;
#X connect 37 0 36 1;
#X connect 38 0 26 0;
#X coords 0 -1 1 1 400 150 2 10 12;
