#N canvas 506 64 611 433 10;
#X declare -path ../vp_base;
#X obj 173 36 cnv 5 5 5 empty empty DRYWETMIX 0 0 0 12 -262144 -66577
0;
#X obj 186 47 cnv 5 5 5 empty empty htaudio.de 0 0 0 8 -262144 -1 0
;
#X obj 19 46 hsl 128 15 0 1 0 0 \$0-value-mix-s vp-drywetmix-value-mix-r
MIX 10 8 0 10 -262144 -1 -1 0 1;
#X obj 10 142 inlet~;
#X obj 10 382 outlet~;
#X floatatom 392 86 5 0 0 0 - - -, f 5;
#X obj 15 22 cnv 5 5 5 empty empty DRY 0 0 0 8 -262144 -1 0;
#X obj 16 85 cnv 5 5 5 empty empty OUT 0 0 0 8 -262144 -1 0;
#X obj 703 42 declare -path ../vp_base;
#X text 66 382 AUDIO OUT;
#X text 11 114 DSP CIRCUIT;
#X text 700 17 DO NOT DELETE OR CHANGE THESE PARTS;
#X text 700 4 Include paths;
#X text 57 141 AUDIO IN DRY;
#X obj 162 140 inlet~;
#X text 209 139 AUDIO IN WET;
#X text 393 39 MIX;
#X text 389 11 Input Parameter Processing;
#X obj 492 145 * -1;
#X obj 492 123 - 1;
#X floatatom 492 167 5 0 0 0 - - -, f 5;
#X obj 392 157 line~;
#X obj 492 208 line~;
#X msg 392 135 \$1 50;
#X msg 492 186 \$1 50;
#X obj 493 234 s~ \$0-dry;
#X obj 392 189 s~ \$0-wet;
#X obj 10 257 *~;
#X obj 162 259 *~;
#X obj 10 353 +~;
#X obj 25 227 r~ \$0-dry;
#X obj 177 227 r~ \$0-wet;
#X obj 222 22 cnv 5 5 5 empty empty WET 0 0 0 8 -262144 -1 0;
#X obj 392 63 r \$0-value-mix-s;
#X connect 3 0 27 0;
#X connect 5 0 19 0;
#X connect 5 0 23 0;
#X connect 14 0 28 0;
#X connect 18 0 20 0;
#X connect 19 0 18 0;
#X connect 20 0 24 0;
#X connect 21 0 26 0;
#X connect 22 0 25 0;
#X connect 23 0 21 0;
#X connect 24 0 22 0;
#X connect 27 0 29 0;
#X connect 28 0 29 1;
#X connect 29 0 4 0;
#X connect 30 0 27 1;
#X connect 31 0 28 1;
#X connect 33 0 5 0;
#X coords 0 -1 1 1 230 80 2 10 12;
