#N canvas 1 473 936 690 10;
#X obj 163 72 cyclone/scope~ 255 133 199 3 168 -1.5 1.5 0 0 0 0.11811
205 229 232 74 79 77 96 98 102 0;
#X floatatom 168 226 5 8 256 2 Bufsize #0-calc_bufsize #0-f_bufsize
, f 5;
#X floatatom 222 226 5 2 8192 2 Calcct. #0-calc_calccount #0-f_calccount
, f 5;
#X obj 433 74 vsl 15 128 0 1 0 0 \$0-calc_search empty Search -10 -9
0 10 -262144 -1 -1 0 1;
#X floatatom 567 85 5 0 0 0 - - -, f 5;
#X floatatom 567 150 5 0 0 0 - - -, f 5;
#X floatatom 675 86 5 0 0 0 - - -, f 5;
#X floatatom 675 190 5 0 0 0 - - -, f 5;
#X obj 675 130 *;
#X obj 675 105 fbounds 512 2;
#X obj 567 104 fbounds 256 8;
#X obj 567 126 ftoint-div;
#X obj 675 152 ftoint-div;
#X obj 474 74 vsl 15 128 -1 1 0 0 \$0-f_triglevel empty TrigLvl -11
-9 0 10 -262144 -1 -1 0 1;
#X msg 11 98 triglevel \$1;
#X obj 496 159 vradio 15 1 0 3 \$0-f_trigmode empty TrigMode 0 -8 0
10 -262144 -1 -1 0;
#X text 514 174 Up;
#X text 514 189 Down;
#X text 513 159 None;
#X msg 11 141 trigger \$1;
#X obj 432 225 hradio 15 1 0 4 \$0-calc_delay empty Delay 0 -8 0 10
-262144 -1 -1 0;
#X text 497 225 x100ms;
#X text 432 243 0;
#X text 477 243 10;
#X text 465 243 5;
#X text 449 243 2;
#X obj 791 86 sel 0 1 2 3;
#X msg 791 135 0;
#X obj 791 110 bng 15 250 50 0 empty empty empty 17 7 0 10 -262144
-1 -1;
#X obj 807 110 bng 15 250 50 0 empty empty empty 17 7 0 10 -262144
-1 -1;
#X obj 822 110 bng 15 250 50 0 empty empty empty 17 7 0 10 -262144
-1 -1;
#X obj 838 110 bng 15 250 50 0 empty empty empty 17 7 0 10 -262144
-1 -1;
#X msg 807 159 2;
#X msg 823 184 5;
#X msg 838 207 10;
#X obj 815 261 * 100;
#X floatatom 815 283 5 0 0 0 - - -, f 5;
#X msg 12 186 delay \$1;
#X obj 161 59 cnv 5 1 1 empty empty PCYCIK-SCOPE 0 0 0 24 -233017 -66577
0;
#X obj 11 6 inlet~;
#X obj 155 39 cnv 5 1 1 empty empty IN 0 0 0 8 -233017 -66577 0;
#X obj 360 225 tgl 15 0 \$0-calc_range empty Range -35 7 0 10 -262144
-1 -1 0 1;
#X floatatom 383 226 5 1 1.5 0 - - #0-calc_rngval, f 5;
#X floatatom 578 263 5 0 0 0 - - -, f 5;
#X obj 578 282 sel 0 1;
#X obj 12 342 print delay;
#X msg 235 338 range -1 1;
#X msg 222 383 range -1.2 1.2;
#X msg 12 320 range \$1 \$2;
#X obj 578 307 bng 15 250 50 0 empty empty empty 17 7 0 10 -262144
-1 -1;
#X obj 601 307 bng 15 250 50 0 empty empty empty 17 7 0 10 -262144
-1 -1;
#X msg 579 339 1;
#X obj 658 377 * -1;
#X obj 630 422 pack \$1 \$2;
#X obj 608 373 * -1;
#X obj 550 416 pack \$1 \$2;
#X obj 661 264 f \$1;
#X msg 622 338 \$1;
#X msg 709 130 0.6;
#X obj 565 31 loadbang;
#X obj 567 171 s \$0-calc_bufsize;
#X obj 11 30 r \$0-f_bufsize;
#X obj 10 52 r \$0-f_calccount;
#X obj 11 76 r \$0-f_triglevel;
#X obj 11 119 r \$0-f_trigmode;
#X obj 12 164 r \$0-f_delay;
#X obj 12 209 r \$0-f_delayfact;
#X obj 581 526 s \$0-f_delayfact;
#X obj 578 242 r \$0-calc_range;
#X obj 681 242 r \$0-calc_rngval;
#X obj 675 212 s \$0-calc_calccount;
#X obj 567 64 r \$0-calc_search;
#X obj 675 64 r \$0-calc_search;
#X obj 791 64 r \$0-calc_delay;
#X obj 815 302 s f_delay;
#X obj 166 255 cnv 5 5 5 empty empty htaudio.de 0 0 0 8 -262144 -1
0;
#X connect 4 0 10 0;
#X connect 5 0 60 0;
#X connect 6 0 9 0;
#X connect 7 0 70 0;
#X connect 8 0 12 0;
#X connect 9 0 8 0;
#X connect 10 0 11 0;
#X connect 11 0 5 0;
#X connect 12 0 7 0;
#X connect 14 0 0 0;
#X connect 19 0 0 0;
#X connect 26 0 28 0;
#X connect 26 1 29 0;
#X connect 26 2 30 0;
#X connect 26 3 31 0;
#X connect 27 0 35 0;
#X connect 28 0 27 0;
#X connect 29 0 32 0;
#X connect 30 0 33 0;
#X connect 31 0 34 0;
#X connect 32 0 35 0;
#X connect 33 0 35 0;
#X connect 34 0 35 0;
#X connect 35 0 36 0;
#X connect 36 0 74 0;
#X connect 37 0 0 0;
#X connect 39 0 0 0;
#X connect 43 0 44 0;
#X connect 44 0 49 0;
#X connect 44 1 50 0;
#X connect 46 0 0 0;
#X connect 47 0 0 0;
#X connect 48 0 45 0;
#X connect 48 0 0 0;
#X connect 49 0 51 0;
#X connect 50 0 57 0;
#X connect 51 0 54 0;
#X connect 51 0 55 1;
#X connect 52 0 53 0;
#X connect 53 0 67 0;
#X connect 54 0 55 0;
#X connect 55 0 67 0;
#X connect 56 0 57 0;
#X connect 57 0 52 0;
#X connect 57 0 53 1;
#X connect 58 0 8 1;
#X connect 59 0 58 0;
#X connect 61 0 0 1;
#X connect 62 0 0 0;
#X connect 63 0 14 0;
#X connect 64 0 19 0;
#X connect 65 0 37 0;
#X connect 66 0 48 0;
#X connect 68 0 43 0;
#X connect 69 0 56 0;
#X connect 71 0 4 0;
#X connect 72 0 6 0;
#X connect 73 0 26 0;
#X coords 0 -1 1 1 410 240 2 150 30;
