#N canvas 545 198 609 287 10;
#X obj 24 218 cnv 15 400 30 empty empty OUTPUTS 20 12 0 14 -99865 -262144
0;
#X obj 24 101 cnv 15 400 30 empty empty CONTROLS 20 12 0 14 -99865
-262144 0;
#X obj 24 160 cnv 15 400 30 empty empty INPUTS 20 12 0 14 -99865 -262144
0;
#X obj 20 17 cnv 15 400 30 empty empty SIDEKIK 20 12 0 14 -99865 -262144
0;
#X obj 443 47 vp-sidekik;
#X text 24 49 Sidekik is a simple oscilloscope. Use it to gain a deeper
understanding of waveforms;
#X obj 443 17 adc~;
#X msg 444 166 \; pd dsp 1;
#X msg 537 166 \; pd dsp 0;
#X text 449 203 DSP ON;
#X text 540 203 DSP OFF;
#X text 24 193 IN - audio signal in;
#X text 24 256 /none/;
#X text 25 136 /none/;
#X connect 6 0 4 0;
