#N canvas 864 462 885 561 10;
#X declare -path ../vp_base;
#X obj 310 23 cnv 5 5 5 empty empty SAMPLE-REDUX 0 0 0 12 -262144 -66577
0;
#X obj 345 34 cnv 5 5 5 empty empty htaudio.de 0 0 0 8 -262144 -1 0
;
#X obj 145 65 hsl 128 15 0 1 0 0 \$0-value-samplerate-s vp-smpredux-value-samplerate-r
SAMPLE-RATE 10 8 0 10 -262144 -1 -1 0 1;
#X obj 10 232 inlet~;
#X obj 10 482 outlet~;
#X floatatom 441 116 5 0 0 0 - - -, f 5;
#X floatatom 648 101 5 0 0 0 - - -, f 5;
#X obj 15 22 cnv 5 5 5 empty empty IN 0 0 0 8 -262144 -1 0;
#X obj 16 154 cnv 5 5 5 empty empty OUT 0 0 0 8 -262144 -1 0;
#N canvas 0 22 450 278 (subpatch) 0;
#X array \$0-scope-in 512 float 0;
#X coords 0 1 511 -1 100 60 1 0 0;
#X restore 18 65 graph;
#N canvas 0 22 450 278 (subpatch) 0;
#X array \$0-scope-out 512 float 0;
#X coords 0 1 511 -1 100 60 1 0 0;
#X restore 300 65 graph;
#X obj 916 87 loadbang;
#X msg 916 109 1;
#X obj 910 158 tabwrite~ \$0-scope-in;
#X obj 1049 158 tabwrite~ \$0-scope-out;
#X obj 10 213 s~ \$0-audio-in-sig;
#X obj 910 57 r~ \$0-audio-in-sig;
#X obj 915 131 metro 50;
#X obj 1041 56 declare -path ../vp_base;
#X obj 526 149 vp-sr;
#X obj 526 119 loadbang;
#X obj 526 171 i 11025;
#X floatatom 526 193 5 0 0 0 - - -, f 5;
#X obj 142 108 tgl 15 0 \$0-value-crunch-s vp-smpredux-value-crunch-r
CRUNCH 20 7 0 10 -262144 -1 -1 0 1;
#X obj 441 83 vp-normtorange 0.3 0;
#X obj 441 224 vp-sr-div;
#X obj 441 256 clip 0 12000;
#X floatatom 441 278 5 0 0 0 - - -, f 5;
#X obj 441 297 s \$0-trigclk;
#X obj 648 137 == 0;
#X obj 771 139 >= 1;
#X msg 648 165 \$1 20;
#X msg 771 165 \$1 20;
#X obj 648 187 line~;
#X obj 771 187 line~;
#X obj 10 263 lop~ 2000;
#X obj 10 289 lop~ 2000;
#X obj 10 341 samphold~;
#X obj 248 178 r pd-dsp-stopped;
#X obj 317 202 r pd-dsp-started;
#X msg 248 200 0;
#X msg 317 224 1;
#X text 439 6 Input Parameter Processing;
#X text 915 31 DO NOT DELETE OR CHANGE THESE PARTS;
#X text 915 18 Oscis and include paths;
#X obj 146 235 r \$0-trigclk;
#X obj 10 373 lop~ 2000;
#X obj 10 399 lop~ 2000;
#X obj 10 449 *~;
#X obj 146 260 vp-clockwerk;
#X obj 10 506 s~ \$0-audio-out-sig;
#X obj 110 375 *~;
#X obj 140 354 r~ \$0-ofilt-off;
#X obj 100 432 r~ \$0-ofilt-on;
#X obj 648 209 s~ \$0-ofilt-on;
#X obj 771 209 s~ \$0-ofilt-off;
#X obj 1042 85 r~ \$0-audio-out-sig;
#X obj 648 54 loadbang;
#X text 441 31 SAMPLE-RATE;
#X text 648 31 CRUNCH;
#X text 11 171 DSP CIRCUIT;
#X text 57 232 AUDIO IN;
#X text 67 482 AUDIO OUT;
#X obj 441 54 r \$0-value-samplerate-s;
#X obj 648 79 r \$0-value-crunch-s;
#X connect 3 0 15 0;
#X connect 3 0 35 0;
#X connect 5 0 25 0;
#X connect 6 0 29 0;
#X connect 6 0 30 0;
#X connect 11 0 12 0;
#X connect 12 0 17 0;
#X connect 16 0 13 0;
#X connect 17 0 13 0;
#X connect 17 0 14 0;
#X connect 19 0 21 0;
#X connect 20 0 19 0;
#X connect 21 0 22 0;
#X connect 22 0 25 2;
#X connect 24 0 5 0;
#X connect 25 0 26 0;
#X connect 26 0 27 0;
#X connect 27 0 28 0;
#X connect 29 0 31 0;
#X connect 30 0 32 0;
#X connect 31 0 33 0;
#X connect 32 0 34 0;
#X connect 33 0 54 0;
#X connect 34 0 55 0;
#X connect 35 0 36 0;
#X connect 36 0 37 0;
#X connect 37 0 46 0;
#X connect 37 0 51 0;
#X connect 38 0 40 0;
#X connect 39 0 41 0;
#X connect 40 0 49 1;
#X connect 41 0 49 1;
#X connect 45 0 49 0;
#X connect 46 0 47 0;
#X connect 47 0 48 0;
#X connect 48 0 4 0;
#X connect 48 0 50 0;
#X connect 49 0 37 1;
#X connect 51 0 4 0;
#X connect 51 0 50 0;
#X connect 52 0 51 1;
#X connect 53 0 48 1;
#X connect 56 0 14 0;
#X connect 57 0 6 0;
#X connect 63 0 24 0;
#X connect 64 0 6 0;
#X coords 0 -1 1 1 400 150 2 10 12;
