#N canvas 342 313 350 162 10;
#N canvas 0 22 450 278 (subpatch) 0;
#X array \$0-scope 512 float 0;
#X coords 0 1 511 -1 100 60 1 0 0;
#X restore 17 40 graph;
#X obj 102 23 cnv 5 5 5 empty empty SIDEKIK 0 0 0 12 -262144 -66577
0;
#X obj 18 112 cnv 5 5 5 empty empty htaudio.de 0 0 0 8 -262144 -1 0
;
#X obj 201 13 inlet~;
#X obj 257 13 loadbang;
#X msg 257 35 1;
#X obj 257 57 metro 200;
#X obj 201 104 tabwrite~ \$0-scope;
#X connect 3 0 7 0;
#X connect 4 0 5 0;
#X connect 5 0 6 0;
#X connect 6 0 7 0;
#X coords 0 -1 1 1 150 110 2 10 12;
